<?xml version="1.0" encoding="UTF-8" standalone="no"?>
<!-- Created with Inkscape (http://www.inkscape.org/) -->

<svg
   xmlns:dc="http://purl.org/dc/elements/1.1/"
   xmlns:cc="http://creativecommons.org/ns#"
   xmlns:rdf="http://www.w3.org/1999/02/22-rdf-syntax-ns#"
   xmlns:svg="http://www.w3.org/2000/svg"
   xmlns="http://www.w3.org/2000/svg"
   xmlns:sodipodi="http://sodipodi.sourceforge.net/DTD/sodipodi-0.dtd"
   xmlns:inkscape="http://www.inkscape.org/namespaces/inkscape"
   id="svg3085"
   version="1.1"
   inkscape:version="0.48.2 r9819"
   width="478"
   height="472"
   sodipodi:docname="crown.svg"
   inkscape:export-filename="/Users/taylor/git/TopicBingo/TopicBingo/assets/crown.png"
   inkscape:export-xdpi="13.61"
   inkscape:export-ydpi="13.61">
  <metadata
     id="metadata3091">
    <rdf:RDF>
      <cc:Work
         rdf:about="">
        <dc:format>image/svg+xml</dc:format>
        <dc:type
           rdf:resource="http://purl.org/dc/dcmitype/StillImage" />
        <dc:title></dc:title>
      </cc:Work>
    </rdf:RDF>
  </metadata>
  <defs
     id="defs3089" />
  <sodipodi:namedview
     pagecolor="#ffffff"
     bordercolor="#666666"
     borderopacity="1"
     objecttolerance="10"
     gridtolerance="10"
     guidetolerance="10"
     inkscape:pageopacity="0"
     inkscape:pageshadow="2"
     inkscape:window-width="1366"
     inkscape:window-height="655"
     id="namedview3087"
     showgrid="false"
     inkscape:zoom="0.5"
     inkscape:cx="-246.78003"
     inkscape:cy="-187.50284"
     inkscape:window-x="0"
     inkscape:window-y="0"
     inkscape:window-maximized="1"
     inkscape:current-layer="svg3085" />
  <rect
     style="fill:#00ffff;fill-opacity:1;stroke:none"
     id="rect3095"
     width="730"
     height="612"
     x="-108"
     y="-54"
     ry="0" />
  <g
     id="g3867"
     transform="translate(17.442102,-64.824591)"
     inkscape:export-filename="/Users/taylor/git/TopicBingo/TopicBingo/res/drawable-hdpi/crown.png"
     inkscape:export-xdpi="13.61"
     inkscape:export-ydpi="13.61">
    <path
       style="fill:#fefefe"
       d="m 184.5,535.82614 c -13.72183,-0.93481 -53.48586,-6.71264 -67,-9.73529 -12.95737,-2.89811 -32.3629,-8.94882 -41.5,-12.93982 l -8.5,-3.71273 0,-7.86016 c 0,-6.30287 0.335968,-8.07209 1.695741,-8.92981 1.28899,-0.81308 7.04578,0.19649 23.999999,4.20889 C 138.61822,507.60692 186.40128,514 221.32405,514 c 18.62974,0 52.2632,-2.41078 69.17595,-4.95839 7.15,-1.07702 17.275,-2.44568 22.5,-3.04146 12.13473,-1.38367 24.95901,-3.9847 47.49088,-9.63213 l 17.99088,-4.50926 2.31587,2.69235 c 2.05376,2.38765 2.23889,3.32934 1.63572,8.32063 -0.37407,3.09554 -1.10748,6.16398 -1.6298,6.81875 -2.80583,3.51737 -36.17254,13.65951 -57.14604,17.3701 -9.31829,1.64858 -17.32322,3.23281 -17.78875,3.52052 -1.29208,0.79855 -32.46167,4.15637 -49.69831,5.35388 -17.69906,1.22963 -52.80601,1.17631 -71.67045,-0.10885 z M 202,500.37446 c -34.68923,-3.21623 -54.46089,-6.2006 -84.5,-12.75458 -19.15372,-4.179 -42.900424,-9.69221 -43.253282,-10.04202 -0.139305,-0.1381 -3.853435,-19.25858 -8.253622,-42.48996 C 57.306863,389.22777 53.667564,374.39667 37.629796,319.5 33.452128,305.2 25.767382,279.3465 20.552583,262.04777 c -5.214798,-17.29873 -9.355793,-31.57789 -9.20221,-31.73148 0.153582,-0.15358 18.250078,21.70876 40.214434,48.58299 21.964356,26.87422 40.062433,48.75114 40.217953,48.61537 0.15552,-0.13576 1.85005,-36.61413 3.76562,-81.06303 1.91556,-44.4489 3.67539,-81.00872 3.91072,-81.24405 0.23533,-0.23534 16.04479,30.78419 35.13213,68.93227 19.08733,38.14809 34.8468,68.91016 35.02103,68.36016 0.17423,-0.55 11.59318,-41.05 25.37544,-90 13.78226,-48.95 25.42834,-89.89349 25.88019,-90.98554 0.72465,-1.7514 0.95292,-1.57451 1.93571,1.5 0.6128,1.91705 13.07443,42.18554 27.69251,89.48554 14.61808,47.3 26.9451,87.125 27.39338,88.5 0.69865,2.14297 5.82666,-7.49673 35.90786,-67.5 19.30104,-38.5 35.11752,-69.69352 35.14773,-69.31893 0.84047,10.42259 14.21287,154.63486 14.61791,157.64424 l 0.58214,4.32531 32.63753,-43.53189 c 17.95064,-23.94253 32.76697,-43.40244 32.92518,-43.24422 0.53514,0.53513 -15.66094,66.92728 -23.73133,97.28125 -4.40974,16.58567 -10.27574,39.76067 -13.03556,51.5 -5.02829,21.3886 -15.21876,73.34352 -16.48484,84.04601 l -0.67451,5.70177 -5.6408,1.12423 c -3.10244,0.61833 -12.3908,2.63862 -20.6408,4.48955 -33.99139,7.62613 -38.36399,8.56745 -46.5,10.01042 -4.675,0.82914 -14.575,2.18091 -22,3.00393 -7.425,0.82302 -16.65,1.95362 -20.5,2.51244 -7.32877,1.06375 -50.73003,2.05074 -58.5,1.33035 z M 441,232.33067 c -0.825,-0.30416 -3.22165,-1.71286 -5.32589,-3.13044 -10.39662,-7.00397 -10.15462,-23.43723 0.45341,-30.7886 5.30447,-3.676 9.4843,-3.64564 14.90113,0.10823 5.85043,4.05434 7.17806,6.523 7.66996,14.26185 0.32916,5.17857 0.0116,7.49657 -1.38579,10.11419 -3.05292,5.71895 -12.13854,10.97375 -16.31282,9.43477 z M -9.6800631,224.0039 c -3.9662729,-2.91683 -4.9778559,-4.6026 -7.2880769,-12.14536 -1.179787,-3.85194 -0.09252,-10.65613 2.544604,-15.92432 1.592651,-3.18164 7.976087,-7.70331 11.948382,-8.46358 4.314868,-0.82583 11.281137,3.06919 14.961779,8.3655 2.674125,3.84797 3.013375,5.15088 3.013375,11.57303 0,6.24589 -0.382059,7.81422 -2.790022,11.4529 -5.723424,8.64867 -14.79017,10.73084 -22.3900411,5.14183 z M 347.93504,154.73521 c -1.8484,-1.24564 -4.72013,-4.199 -6.38163,-6.56302 -2.54859,-3.62621 -3.07512,-5.42191 -3.36761,-11.48521 -0.30945,-6.41492 -0.0294,-7.77782 2.60661,-12.68698 2.39309,-4.4567 3.97155,-6.03419 8.32122,-8.31612 4.19209,-2.19927 6.12901,-2.67334 8.84258,-2.16427 8.2853,1.55433 13.80867,7.38342 15.91512,16.79604 1.58681,7.0906 -0.23536,14.76588 -4.87667,20.54137 -5.24159,6.52246 -14.58308,8.24272 -21.05962,3.87819 z M 87.343,153.37939 c -5.414111,-1.93285 -10.837027,-8.79288 -12.283847,-15.53917 -1.973381,-9.20156 2.981471,-21.61634 10.141187,-25.40957 3.45004,-1.82785 11.10971,-1.84131 14.59932,-0.0257 9.57816,4.98351 14.50794,21.57318 9.09161,30.59501 -5.87847,9.79159 -13.24949,13.34207 -21.54827,10.37939 z m 130.20141,-43.95776 c -5.41722,-1.99851 -8.39217,-4.97896 -11.17946,-11.200143 -2.92578,-6.530278 -2.97808,-10.834587 -0.22342,-18.389487 6.23575,-17.102154 24.80179,-17.886623 32.4916,-1.372865 4.10614,8.817876 2.96582,18.13205 -3.10071,25.326785 -4.99102,5.9192 -11.60373,7.99099 -17.98801,5.63571 z"
       id="path3869"
       inkscape:connector-curvature="0" />
  </g>
  <path
     style="fill:#000000"
     d=""
     id="path3865"
     inkscape:connector-curvature="0" />
</svg>
